<svg width="760" height="140" viewBox="0 0 760 140" fill="none" xmlns="http://www.w3.org/2000/svg" role="img" aria-label="Triumph Empowerment Centre logo">
  <defs>
    <linearGradient id="tecRed" x1="105" y1="8" x2="105" y2="110" gradientUnits="userSpaceOnUse">
      <stop stop-color="#FF1F1F"/>
      <stop offset="1" stop-color="#C90000"/>
    </linearGradient>
    <linearGradient id="tecOrange" x1="24" y1="28" x2="120" y2="128" gradientUnits="userSpaceOnUse">
      <stop stop-color="#FF9D00"/>
      <stop offset="1" stop-color="#F15A00"/>
    </linearGradient>
    <linearGradient id="tecBlue" x1="150" y1="34" x2="122" y2="108" gradientUnits="userSpaceOnUse">
      <stop stop-color="#168BE8"/>
      <stop offset="1" stop-color="#034EA2"/>
    </linearGradient>
  </defs>

  <!-- people / empowerment mark -->
  <g transform="translate(10 7)">
    <circle cx="96" cy="16" r="12" fill="url(#tecRed)"/>
    <path d="M75 39 C84 31 92 29 101 36 C110 44 118 58 128 78 C113 70 103 61 96 50 C89 64 78 75 62 86 C66 66 68 50 75 39Z" fill="url(#tecRed)"/>

    <circle cx="39" cy="46" r="10" fill="url(#tecOrange)"/>
    <path d="M4 82 C22 58 47 56 70 76 C52 79 34 88 18 105 C16 94 11 87 4 82Z" fill="url(#tecOrange)"/>

    <circle cx="155" cy="51" r="10" fill="url(#tecBlue)"/>
    <path d="M123 76 C144 56 170 61 188 85 C171 85 153 93 137 108 C135 94 131 84 123 76Z" fill="url(#tecBlue)"/>

    <!-- supporting hand -->
    <path d="M22 104 C49 91 77 92 106 102 C120 106 131 99 142 88 C146 84 152 84 155 88 C159 92 158 98 153 102 C137 119 119 127 93 123 C68 119 45 113 22 129 C15 134 8 124 14 117 C17 113 19 109 22 104Z" fill="url(#tecRed)"/>
    <path d="M15 117 C45 105 72 110 99 117 C117 122 134 117 151 102 C139 122 117 135 86 130 C57 125 33 119 6 134 C6 126 9 121 15 117Z" fill="url(#tecOrange)"/>
    <path d="M108 98 C123 103 139 95 151 84" stroke="#FFFFFF" stroke-width="6" stroke-linecap="round"/>
    <path d="M124 102 C138 100 149 93 158 84" stroke="#FFFFFF" stroke-width="6" stroke-linecap="round"/>
  </g>

  <!-- wordmark -->
  <g transform="translate(220 28)">
    <text x="0" y="34" font-family="Montserrat, Arial, sans-serif" font-size="36" font-weight="900" letter-spacing="5" fill="#D50000">TRIUMPH</text>
    <text x="1" y="65" font-family="Montserrat, Arial, sans-serif" font-size="15" font-weight="900" letter-spacing="5" fill="#D50000">EMPOWERMENT CENTRE</text>
    <text x="2" y="96" font-family="Montserrat, Arial, sans-serif" font-size="13" font-weight="900" letter-spacing="6" fill="#073D70">EMPOWER • ENRICH • ELEVATE</text>
  </g>
</svg>
